<mxfile host="app.diagrams.net" agent="Mozilla/5.0 (Windows NT 10.0; Win64; x64) AppleWebKit/537.36 (KHTML, like Gecko) Chrome/131.0.0.0 Safari/537.36" version="24.9.0">
  <diagram name="Page-1" id="S39hJQKDLti09XKAej5g">
    <mxGraphModel dx="1434" dy="746" grid="1" gridSize="10" guides="1" tooltips="1" connect="1" arrows="1" fold="1" page="1" pageScale="1" pageWidth="850" pageHeight="1100" math="0" shadow="0">
      <root>
        <mxCell id="0" />
        <mxCell id="1" parent="0" />
        <mxCell id="Wuc1x_-Td-oVfaExeqIP-8" value="Admin" style="shape=umlActor;verticalLabelPosition=bottom;verticalAlign=top;html=1;" vertex="1" parent="1">
          <mxGeometry x="70" y="80" width="30" height="60" as="geometry" />
        </mxCell>
        <mxCell id="Wuc1x_-Td-oVfaExeqIP-9" value="Gazda" style="shape=umlActor;verticalLabelPosition=bottom;verticalAlign=top;html=1;" vertex="1" parent="1">
          <mxGeometry x="290" y="80" width="30" height="60" as="geometry" />
        </mxCell>
        <mxCell id="Wuc1x_-Td-oVfaExeqIP-10" value="Chirias" style="shape=umlActor;verticalLabelPosition=bottom;verticalAlign=top;html=1;" vertex="1" parent="1">
          <mxGeometry x="480" y="80" width="30" height="60" as="geometry" />
        </mxCell>
        <mxCell id="Wuc1x_-Td-oVfaExeqIP-12" value="Log in" style="ellipse;whiteSpace=wrap;html=1;" vertex="1" parent="1">
          <mxGeometry x="235" y="300" width="140" height="70" as="geometry" />
        </mxCell>
        <mxCell id="Wuc1x_-Td-oVfaExeqIP-15" value="" style="endArrow=open;endFill=1;endSize=12;html=1;rounded=0;" edge="1" parent="1">
          <mxGeometry width="160" relative="1" as="geometry">
            <mxPoint x="80" y="160" as="sourcePoint" />
            <mxPoint x="240" y="320" as="targetPoint" />
          </mxGeometry>
        </mxCell>
        <mxCell id="Wuc1x_-Td-oVfaExeqIP-16" value="" style="endArrow=open;endFill=1;endSize=12;html=1;rounded=0;entryX=0.5;entryY=0;entryDx=0;entryDy=0;" edge="1" parent="1" target="Wuc1x_-Td-oVfaExeqIP-12">
          <mxGeometry width="160" relative="1" as="geometry">
            <mxPoint x="305" y="160" as="sourcePoint" />
            <mxPoint x="300" y="290" as="targetPoint" />
          </mxGeometry>
        </mxCell>
        <mxCell id="Wuc1x_-Td-oVfaExeqIP-17" value="" style="endArrow=open;endFill=1;endSize=12;html=1;rounded=0;entryX=0.929;entryY=0.286;entryDx=0;entryDy=0;entryPerimeter=0;" edge="1" parent="1" target="Wuc1x_-Td-oVfaExeqIP-12">
          <mxGeometry width="160" relative="1" as="geometry">
            <mxPoint x="490" y="160" as="sourcePoint" />
            <mxPoint x="650" y="320" as="targetPoint" />
          </mxGeometry>
        </mxCell>
        <mxCell id="Wuc1x_-Td-oVfaExeqIP-18" value="Corect?" style="rhombus;" vertex="1" parent="1">
          <mxGeometry x="247.5" y="440" width="115" height="110" as="geometry" />
        </mxCell>
        <mxCell id="Wuc1x_-Td-oVfaExeqIP-19" value="" style="endArrow=open;endFill=1;endSize=12;html=1;rounded=0;" edge="1" parent="1">
          <mxGeometry width="160" relative="1" as="geometry">
            <mxPoint x="304.5" y="370" as="sourcePoint" />
            <mxPoint x="305" y="440" as="targetPoint" />
          </mxGeometry>
        </mxCell>
        <mxCell id="Wuc1x_-Td-oVfaExeqIP-21" value="Da" style="html=1;verticalAlign=bottom;endArrow=block;curved=0;rounded=0;" edge="1" parent="1">
          <mxGeometry width="80" relative="1" as="geometry">
            <mxPoint x="304.5" y="550" as="sourcePoint" />
            <mxPoint x="304.5" y="610" as="targetPoint" />
            <Array as="points">
              <mxPoint x="304.5" y="610" />
            </Array>
          </mxGeometry>
        </mxCell>
        <mxCell id="Wuc1x_-Td-oVfaExeqIP-22" value="Nu" style="html=1;verticalAlign=bottom;endArrow=block;curved=0;rounded=0;" edge="1" parent="1">
          <mxGeometry width="80" relative="1" as="geometry">
            <mxPoint x="362.5" y="494.5" as="sourcePoint" />
            <mxPoint x="442.5" y="494.5" as="targetPoint" />
            <Array as="points">
              <mxPoint x="442.5" y="494.5" />
            </Array>
          </mxGeometry>
        </mxCell>
        <mxCell id="Wuc1x_-Td-oVfaExeqIP-24" value="Afiseaza eroare" style="html=1;dashed=0;rounded=1;absoluteArcSize=1;arcSize=20;verticalAlign=middle;align=center;whiteSpace=wrap;" vertex="1" parent="1">
          <mxGeometry x="440" y="480" width="120" height="30" as="geometry" />
        </mxCell>
        <mxCell id="Wuc1x_-Td-oVfaExeqIP-26" value="" style="endArrow=open;endFill=1;endSize=12;html=1;rounded=0;exitX=0.583;exitY=0.033;exitDx=0;exitDy=0;exitPerimeter=0;entryX=1;entryY=0.5;entryDx=0;entryDy=0;" edge="1" parent="1" source="Wuc1x_-Td-oVfaExeqIP-24" target="Wuc1x_-Td-oVfaExeqIP-12">
          <mxGeometry width="160" relative="1" as="geometry">
            <mxPoint x="450" y="380" as="sourcePoint" />
            <mxPoint x="610" y="380" as="targetPoint" />
            <Array as="points">
              <mxPoint x="510" y="335" />
            </Array>
          </mxGeometry>
        </mxCell>
        <mxCell id="Wuc1x_-Td-oVfaExeqIP-27" value="Redirectionare catre:" style="html=1;dashed=0;rounded=1;absoluteArcSize=1;arcSize=20;verticalAlign=middle;align=center;whiteSpace=wrap;" vertex="1" parent="1">
          <mxGeometry x="225" y="610" width="160" height="50" as="geometry" />
        </mxCell>
        <mxCell id="Wuc1x_-Td-oVfaExeqIP-29" value="Panou control Admin" style="html=1;align=center;verticalAlign=top;rounded=1;absoluteArcSize=1;arcSize=10;dashed=0;whiteSpace=wrap;" vertex="1" parent="1">
          <mxGeometry x="50" y="760" width="140" height="40" as="geometry" />
        </mxCell>
        <mxCell id="Wuc1x_-Td-oVfaExeqIP-30" value="Home page Gazda" style="html=1;align=center;verticalAlign=top;rounded=1;absoluteArcSize=1;arcSize=10;dashed=0;whiteSpace=wrap;" vertex="1" parent="1">
          <mxGeometry x="250" y="760" width="140" height="40" as="geometry" />
        </mxCell>
        <mxCell id="Wuc1x_-Td-oVfaExeqIP-31" value="Home page Chirias" style="html=1;align=center;verticalAlign=top;rounded=1;absoluteArcSize=1;arcSize=10;dashed=0;whiteSpace=wrap;" vertex="1" parent="1">
          <mxGeometry x="450" y="760" width="140" height="40" as="geometry" />
        </mxCell>
        <mxCell id="Wuc1x_-Td-oVfaExeqIP-32" value="" style="endArrow=open;endFill=1;endSize=12;html=1;rounded=0;entryX=0.5;entryY=0;entryDx=0;entryDy=0;" edge="1" parent="1" target="Wuc1x_-Td-oVfaExeqIP-29">
          <mxGeometry width="160" relative="1" as="geometry">
            <mxPoint x="225" y="650" as="sourcePoint" />
            <mxPoint x="100" y="810" as="targetPoint" />
          </mxGeometry>
        </mxCell>
        <mxCell id="Wuc1x_-Td-oVfaExeqIP-33" value="" style="endArrow=open;endFill=1;endSize=12;html=1;rounded=0;entryX=0.5;entryY=0;entryDx=0;entryDy=0;" edge="1" parent="1" target="Wuc1x_-Td-oVfaExeqIP-30">
          <mxGeometry width="160" relative="1" as="geometry">
            <mxPoint x="320" y="660" as="sourcePoint" />
            <mxPoint x="320.5" y="730" as="targetPoint" />
          </mxGeometry>
        </mxCell>
        <mxCell id="Wuc1x_-Td-oVfaExeqIP-34" value="" style="endArrow=open;endFill=1;endSize=12;html=1;rounded=0;entryX=0.5;entryY=0;entryDx=0;entryDy=0;" edge="1" parent="1" target="Wuc1x_-Td-oVfaExeqIP-31">
          <mxGeometry width="160" relative="1" as="geometry">
            <mxPoint x="385" y="640" as="sourcePoint" />
            <mxPoint x="545" y="800" as="targetPoint" />
          </mxGeometry>
        </mxCell>
      </root>
    </mxGraphModel>
  </diagram>
</mxfile>
